<svg width="32" height="32" viewBox="0 0 32 32" fill="none" xmlns="http://www.w3.org/2000/svg">
<path d="M20.0588 25.5765C19.7924 25.5769 19.537 25.471 19.349 25.2824L15.6274 21.5608L17.047 20.1413L20.0588 23.153L26.0823 17.1295L27.5018 18.5491L20.7685 25.2824C20.5805 25.471 20.3251 25.5769 20.0588 25.5765Z" fill="#72C472"/>
<path d="M26.5843 7.00392H5.50196C5.22474 7.00392 5 6.77919 5 6.50196C5 6.22474 5.22474 6 5.50196 6H26.5843C26.8615 6 27.0863 6.22474 27.0863 6.50196C27.0863 6.77919 26.8615 7.00392 26.5843 7.00392Z" fill="#131F37"/>
<path d="M26.5843 13.0275H5.50196C5.22474 13.0275 5 12.8027 5 12.5255C5 12.2483 5.22474 12.0236 5.50196 12.0236H26.5843C26.8615 12.0236 27.0863 12.2483 27.0863 12.5255C27.0863 12.8027 26.8615 13.0275 26.5843 13.0275Z" fill="#131F37"/>
<path d="M13.5333 19.051H5.50196C5.22474 19.051 5 18.8263 5 18.5491C5 18.2719 5.22474 18.0471 5.50196 18.0471H13.5333C13.8106 18.0471 14.0353 18.2719 14.0353 18.5491C14.0353 18.8263 13.8106 19.051 13.5333 19.051Z" fill="#131F37"/>
<path d="M13.5333 25.0745H5.50196C5.22474 25.0745 5 24.8497 5 24.5725C5 24.2953 5.22474 24.0706 5.50196 24.0706H13.5333C13.8106 24.0706 14.0353 24.2953 14.0353 24.5725C14.0353 24.8497 13.8106 25.0745 13.5333 25.0745Z" fill="#131F37"/>
</svg>
