<svg width="32" height="32" viewBox="0 0 32 32" fill="none" xmlns="http://www.w3.org/2000/svg">
<path d="M4 9.36365H28" stroke="#111111" stroke-linecap="square"/>
<path d="M4 14.8182H28" stroke="#111111" stroke-linecap="square"/>
<path d="M28 14.8182V7.18182C28 5.98182 27.0182 5 25.8182 5H6.18182C4.98182 5 4 5.98182 4 7.18182V21.3636C4 22.5636 4.98182 23.5455 6.18182 23.5455H12.7273" stroke="#111111" stroke-linecap="square"/>
<path fill-rule="evenodd" clip-rule="evenodd" d="M27.1284 18.9768C26.5012 18.3363 25.6165 18.0162 24.7246 18.107C23.8327 18.1979 23.0307 18.6898 22.5455 19.4437C22.0606 18.6895 21.2586 18.1973 20.3665 18.1064C19.4745 18.0155 18.5897 18.3359 17.9626 18.9768C16.8009 20.1651 16.8009 22.0637 17.9626 23.2521L22.5455 27.9091L27.1295 23.2521C28.2904 22.0632 28.2899 20.165 27.1284 18.9768Z" stroke="#0093ED" stroke-linecap="square"/>
</svg>
