<svg width="32" height="32" viewBox="0 0 32 32" fill="none" xmlns="http://www.w3.org/2000/svg">
<path d="M25.3628 12.6107L24.3294 20.0588H9.27059L7.01176 5H4" stroke="#131F37"/>
<path d="M7.61426 8.76465H14.9178" stroke="#131F37"/>
<path d="M23.3958 14.7915C26.3758 14.7915 28.7915 12.3758 28.7915 9.39576C28.7915 6.41577 26.3758 4 23.3958 4C20.4158 4 18 6.41577 18 9.39576C18 12.3758 20.4158 14.7915 23.3958 14.7915Z" fill="#0093ED"/>
<path d="M23.479 7.54187V11.0837" stroke="white" stroke-width="0.830118" stroke-linecap="square"/>
<path d="M21.708 9.31274H25.2498" stroke="white" stroke-width="0.830118" stroke-linecap="square"/>
<path d="M10.7764 27.5882C12.0239 27.5882 13.0352 26.5769 13.0352 25.3294C13.0352 24.0819 12.0239 23.0706 10.7764 23.0706C9.52889 23.0706 8.51758 24.0819 8.51758 25.3294C8.51758 26.5769 9.52889 27.5882 10.7764 27.5882Z" stroke="#131F37" stroke-linecap="square"/>
<path d="M23.5767 27.5882C24.8242 27.5882 25.8355 26.5769 25.8355 25.3294C25.8355 24.0819 24.8242 23.0706 23.5767 23.0706C22.3292 23.0706 21.3179 24.0819 21.3179 25.3294C21.3179 26.5769 22.3292 27.5882 23.5767 27.5882Z" stroke="#131F37" stroke-linecap="square"/>
</svg>
