<svg width="12" height="8" viewBox="0 0 12 8" fill="none" xmlns="http://www.w3.org/2000/svg">
<path d="M11.7727 2.64216C11.8641 2.57757 12 2.63799 12 2.74007V7.00049C12 7.55257 11.4961 8.00049 10.875 8.00049H1.125C0.503906 8.00049 0 7.55257 0 7.00049V2.74216C0 2.63799 0.133594 2.57965 0.227344 2.64424C0.752344 3.00674 1.44844 3.46715 3.83906 5.01091C4.33359 5.33174 5.16797 6.00674 6 6.00257C6.83672 6.00882 7.6875 5.31924 8.16328 5.01091C10.5539 3.46715 11.2477 3.00466 11.7727 2.64216ZM6 5.33382C6.54375 5.34215 7.32656 4.72549 7.72031 4.47132C10.8305 2.46507 11.0672 2.29007 11.7844 1.79007C11.9203 1.69632 12 1.55049 12 1.39632V1.00049C12 0.448405 11.4961 0.000488281 10.875 0.000488281H1.125C0.503906 0.000488281 0 0.448405 0 1.00049V1.39632C0 1.55049 0.0796875 1.69424 0.215625 1.79007C0.932813 2.28799 1.16953 2.46507 4.27969 4.47132C4.67344 4.72549 5.45625 5.34215 6 5.33382Z" fill="white"/>
</svg>
