<svg width="12" height="14" viewBox="0 0 12 14" fill="none" xmlns="http://www.w3.org/2000/svg">
<path d="M11.9956 10.4645C12.0163 10.6613 11.9646 10.827 11.8196 10.972L10.1314 12.6497C10.0589 12.7326 9.95536 12.8051 9.83108 12.8672C9.7068 12.9294 9.58252 12.9604 9.4686 12.9812C9.45825 12.9812 9.43753 12.9812 9.3961 12.9915C9.35468 12.9915 9.30289 13.0019 9.2304 13.0019C9.06469 13.0019 8.80578 12.9708 8.45365 12.919C8.09117 12.8672 7.65619 12.7326 7.128 12.5151C6.61017 12.2976 6.01984 11.9766 5.35702 11.5416C4.69419 11.1066 3.98994 10.5163 3.24427 9.76025C2.65394 9.18027 2.15682 8.62102 1.77362 8.08247C1.38007 7.54393 1.06937 7.04681 0.83117 6.59112C0.592967 6.13543 0.416905 5.73152 0.292625 5.35868C0.168345 4.98584 0.0958489 4.67514 0.0544224 4.40587C0.0129959 4.1366 -0.00771741 3.92946 0.00263922 3.77411C0.0129959 3.61876 0.0129959 3.53591 0.0129959 3.5152C0.0337091 3.40127 0.064779 3.27699 0.126919 3.15271C0.189059 3.02844 0.261555 2.93523 0.344408 2.85237L2.0429 1.1746C2.15682 1.06067 2.29146 0.998535 2.4468 0.998535C2.56073 0.998535 2.65394 1.02961 2.73679 1.09174C2.81964 1.15388 2.89214 1.23674 2.95428 1.32995L4.311 3.90875C4.38349 4.04339 4.40421 4.18838 4.37314 4.35408C4.34207 4.51979 4.26957 4.65443 4.15565 4.75799L3.53425 5.37939C3.51354 5.4001 3.50318 5.42082 3.49282 5.46224C3.48247 5.50367 3.47211 5.53474 3.47211 5.55545C3.50318 5.73152 3.58603 5.93865 3.69996 6.1665C3.80352 6.37363 3.95887 6.62219 4.16601 6.91217C4.37314 7.20216 4.67348 7.54393 5.06703 7.92712C5.45023 8.32067 5.792 8.62102 6.08198 8.83851C6.38232 9.056 6.63088 9.21135 6.82766 9.31491C7.02444 9.41848 7.17979 9.48062 7.28335 9.50133L7.4387 9.5324C7.45941 9.5324 7.48013 9.52204 7.52155 9.51169C7.56298 9.50133 7.58369 9.48062 7.60441 9.47026L8.32937 8.73494C8.48472 8.6003 8.66078 8.52781 8.86792 8.52781C9.01291 8.52781 9.12683 8.54852 9.20969 8.6003H9.22004L11.6746 10.0502C11.861 10.1538 11.9646 10.2988 11.9956 10.4645Z" fill="white"/>
</svg>
