<svg width="40" height="40" viewBox="0 0 40 40" fill="none" xmlns="http://www.w3.org/2000/svg">
<path d="M35.8893 4.00388C32.4643 4.22602 25.6567 5.03459 21.4541 7.97457C21.1641 8.17743 20.9997 8.53814 20.9997 8.91528V34.9059C20.9997 35.7309 21.7891 36.2523 22.4547 35.8694C26.7786 33.3823 33.0318 32.7037 36.1237 32.518C37.1794 32.4545 38 31.4873 38 30.328V6.19673C38.0006 4.93173 37.0406 3.92959 35.8893 4.00388ZM18.5459 7.97457C14.344 5.03459 7.53635 4.22674 4.11129 4.00388C2.96002 3.92959 2 4.93173 2 6.19673V30.3288C2 31.4887 2.82064 32.4559 3.87628 32.5187C6.96946 32.7045 13.2258 33.3837 17.5496 35.8723C18.2134 36.2544 19.0003 35.7337 19.0003 34.9109V8.90243C19.0003 8.52457 18.8365 8.17814 18.5459 7.97457Z" fill="#7FD603"/>
</svg>
