<svg width="40" height="40" viewBox="0 0 40 40" fill="none" xmlns="http://www.w3.org/2000/svg">
<g clip-path="url(#clip0)">
<path d="M12.9996 26.384C12.8502 26.384 12.7009 26.406 12.5584 26.4524C11.7484 26.7167 10.8965 26.8862 9.99961 26.8862C9.10274 26.8862 8.25086 26.7167 7.44024 26.4524C7.29774 26.406 7.14899 26.384 6.99961 26.384C3.12086 26.384 -0.0210123 29.5531 -0.000387314 33.4542C0.00836269 35.1027 1.35774 36.4286 2.99961 36.4286H16.9996C18.6415 36.4286 19.9909 35.1027 19.9996 33.4542C20.0202 29.5531 16.8784 26.384 12.9996 26.384ZM9.99961 24.3751C13.3134 24.3751 15.9996 21.6768 15.9996 18.3483C15.9996 15.0197 13.3134 12.3215 9.99961 12.3215C6.68586 12.3215 3.99961 15.0197 3.99961 18.3483C3.99961 21.6768 6.68586 24.3751 9.99961 24.3751ZM36.9996 4.28577H12.9996C11.3452 4.28577 9.99961 5.6826 9.99961 7.39898V10.3126C11.4634 10.3126 12.8184 10.7382 13.9996 11.43V8.30362H35.9996V26.384H31.9996V22.3661H23.9996V26.384H19.2346C20.4284 27.4318 21.3046 28.8154 21.7152 30.4018H36.9996C38.654 30.4018 39.9996 29.005 39.9996 27.2886V7.39898C39.9996 5.6826 38.654 4.28577 36.9996 4.28577Z" fill="#7FD603"/>
</g>
<defs>
<clipPath id="clip0">
<rect width="40" height="40" fill="white"/>
</clipPath>
</defs>
</svg>
