<svg width="14" height="14" viewBox="0 0 14 14" fill="none" xmlns="http://www.w3.org/2000/svg">
<path fill-rule="evenodd" clip-rule="evenodd" d="M7.0007 0.599854C5.26255 0.599854 5.04441 0.607454 4.36174 0.638521C3.6804 0.669721 3.21533 0.777589 2.80839 0.935857C2.38745 1.09933 2.03038 1.31799 1.67464 1.67386C1.31864 2.0296 1.09997 2.38667 0.935968 2.80748C0.7773 3.21455 0.669298 3.67975 0.638631 4.36083C0.608098 5.0435 0.600098 5.26177 0.600098 6.99992C0.600098 8.73807 0.607831 8.95554 0.638765 9.63821C0.670098 10.3196 0.777966 10.7846 0.936101 11.1916C1.0997 11.6125 1.31837 11.9696 1.67424 12.3253C2.02985 12.6813 2.38692 12.9005 2.80759 13.064C3.21479 13.2223 3.68 13.3301 4.3612 13.3613C5.04388 13.3924 5.26188 13.4 6.9999 13.4C8.73818 13.4 8.95565 13.3924 9.63833 13.3613C10.3197 13.3301 10.7853 13.2223 11.1925 13.064C11.6133 12.9005 11.9698 12.6813 12.3254 12.3253C12.6814 11.9696 12.9001 11.6125 13.0641 11.1917C13.2214 10.7846 13.3294 10.3194 13.3614 9.63835C13.3921 8.95567 13.4001 8.73807 13.4001 6.99992C13.4001 5.26177 13.3921 5.04363 13.3614 4.36096C13.3294 3.67962 13.2214 3.21455 13.0641 2.80761C12.9001 2.38667 12.6814 2.0296 12.3254 1.67386C11.9694 1.31786 11.6134 1.09919 11.1921 0.935857C10.7841 0.777589 10.3187 0.669721 9.63739 0.638521C8.95472 0.607454 8.73738 0.599854 6.9987 0.599854H7.0007ZM6.42653 1.75318C6.59693 1.75291 6.78707 1.75318 7.00067 1.75318C8.70949 1.75318 8.91202 1.75931 9.58683 1.78998C10.2108 1.81851 10.5495 1.92278 10.7751 2.01038C11.0738 2.12638 11.2867 2.26505 11.5106 2.48906C11.7346 2.71306 11.8733 2.92639 11.9895 3.22506C12.0771 3.4504 12.1815 3.78907 12.2099 4.41308C12.2406 5.08775 12.2473 5.29042 12.2473 6.99844C12.2473 8.70645 12.2406 8.90912 12.2099 9.5838C12.1814 10.2078 12.0771 10.5465 11.9895 10.7718C11.8735 11.0705 11.7346 11.2831 11.5106 11.507C11.2866 11.731 11.0739 11.8697 10.7751 11.9857C10.5498 12.0737 10.2108 12.1777 9.58683 12.2062C8.91216 12.2369 8.70949 12.2436 7.00067 12.2436C5.29172 12.2436 5.08918 12.2369 4.41451 12.2062C3.7905 12.1774 3.45183 12.0732 3.2261 11.9856C2.92743 11.8696 2.71409 11.7309 2.49009 11.5069C2.26609 11.2829 2.12742 11.0701 2.01115 10.7713C1.92355 10.5459 1.81915 10.2073 1.79075 9.58326C1.76008 8.90859 1.75395 8.70592 1.75395 6.99684C1.75395 5.28775 1.76008 5.08615 1.79075 4.41148C1.81928 3.78747 1.92355 3.4488 2.01115 3.2232C2.12715 2.92453 2.26609 2.71119 2.49009 2.48719C2.71409 2.26319 2.92743 2.12452 3.2261 2.00825C3.4517 1.92025 3.7905 1.81625 4.41451 1.78758C5.00492 1.76091 5.23372 1.75291 6.42653 1.75158V1.75318ZM10.417 2.81586C9.99297 2.81586 9.64897 3.15946 9.64897 3.5836C9.64897 4.00761 9.99297 4.35161 10.417 4.35161C10.841 4.35161 11.185 4.00761 11.185 3.5836C11.185 3.1596 10.841 2.81586 10.417 2.81586ZM7.00071 3.7132C5.18562 3.7132 3.71401 5.18482 3.71401 6.9999C3.71401 8.81499 5.18562 10.2859 7.00071 10.2859C8.81579 10.2859 10.2869 8.81499 10.2869 6.9999C10.2869 5.18482 8.81579 3.7132 7.00071 3.7132ZM7.00068 4.86655C8.17883 4.86655 9.13404 5.82162 9.13404 6.9999C9.13404 8.17805 8.17883 9.13326 7.00068 9.13326C5.8224 9.13326 4.86733 8.17805 4.86733 6.9999C4.86733 5.82162 5.8224 4.86655 7.00068 4.86655Z" fill="white"/>
</svg>
