<svg width="40" height="40" viewBox="0 0 40 40" fill="none" xmlns="http://www.w3.org/2000/svg">
<path fill-rule="evenodd" clip-rule="evenodd" d="M18.8235 35.2375V27.5H23.3835V35.2125C27.4753 35.725 30.5153 37.6425 30.5153 39.9275H11.8706C11.8706 37.6775 14.8212 35.785 18.8235 35.2375Z" fill="#7FD603"/>
<path fill-rule="evenodd" clip-rule="evenodd" d="M26.7742 19.8825H15.5812L14.1812 3.35004C14.1812 3.35004 13.3671 0.0400391 21.1765 0.0400391C28.9883 0.0400391 28.1765 3.35004 28.1765 3.35004L26.7742 19.8825Z" fill="#7FD603"/>
<path fill-rule="evenodd" clip-rule="evenodd" d="M30.5153 28.0626C30.5153 29.1026 29.9718 29.9426 29.0353 29.9426H13.3176C12.3859 29.9426 11.8376 29.1026 11.8376 28.0626C11.8376 28.0626 12.9153 22.5751 15.0306 22.5751H26.9506C29.36 22.5726 30.5153 28.0626 30.5153 28.0626Z" fill="#7FD603"/>
<path fill-rule="evenodd" clip-rule="evenodd" d="M32.8823 18.7751C32.8823 19.7626 32.3812 19.9626 31.7623 19.9626C31.1435 19.9626 30.6423 19.7626 30.6423 18.7751V11.2126C30.6423 10.2226 31.1435 10.0801 31.7623 10.0801C32.3812 10.0801 32.8823 10.2251 32.8823 11.2126V18.7751Z" fill="#7FD603"/>
<path fill-rule="evenodd" clip-rule="evenodd" d="M11.7058 18.7751C11.7058 19.7626 11.2046 19.9626 10.5858 19.9626C9.967 19.9626 9.46582 19.7626 9.46582 18.7751V11.2126C9.46582 10.2226 9.967 10.0801 10.5858 10.0801C11.2046 10.0801 11.7058 10.2251 11.7058 11.2126V18.7751Z" fill="#7FD603"/>
</svg>
