<svg width="40" height="40" viewBox="0 0 40 40" fill="none" xmlns="http://www.w3.org/2000/svg">
<path d="M34.9184 6.39536C34.9976 6.21155 35.0198 6.00821 34.9821 5.81165C34.9445 5.6151 34.8487 5.43437 34.7071 5.29285C34.5656 5.15134 34.3849 5.05554 34.1883 5.01787C33.9917 4.9802 33.7883 5.00238 33.6045 5.08155L5.60614 17.0798C5.41971 17.1597 5.26197 17.2943 5.15387 17.4659C5.04577 17.6375 4.99241 17.8379 5.00087 18.0406C5.00933 18.2432 5.07922 18.4385 5.20125 18.6004C5.32328 18.7624 5.49169 18.8835 5.68413 18.9475L17.2095 22.789L21.0492 34.3133C21.1129 34.5063 21.2339 34.6754 21.3961 34.7979C21.5584 34.9205 21.7541 34.9907 21.9572 34.9991C22.1603 35.0076 22.3612 34.954 22.5331 34.8454C22.7049 34.7368 22.8396 34.5784 22.9191 34.3913L34.9184 6.39536Z" fill="#7FD603"/>
</svg>
